<svg width="23" height="24" viewBox="0 0 23 24" fill="none" xmlns="http://www.w3.org/2000/svg">
<path d="M10.4459 2.51262C6.03757 2.99179 2.49174 6.53762 2.01257 10.8501C1.5334 15.3543 4.1209 19.3793 8.05007 20.9126C8.33757 21.0085 8.62507 20.8168 8.62507 20.4335V18.9001C8.62507 18.9001 8.24174 18.996 7.76257 18.996C6.4209 18.996 5.8459 17.846 5.75007 17.1751C5.65424 16.7918 5.46257 16.5043 5.17507 16.2168C4.88757 16.121 4.79174 16.121 4.79174 16.0251C4.79174 15.8335 5.07924 15.8335 5.17507 15.8335C5.75007 15.8335 6.22924 16.5043 6.4209 16.7918C6.90007 17.5585 7.47507 17.7501 7.76257 17.7501C8.1459 17.7501 8.4334 17.6543 8.62507 17.5585C8.7209 16.8876 9.0084 16.2168 9.5834 15.8335C7.37924 15.3543 5.75007 14.1085 5.75007 12.0001C5.75007 10.946 6.22924 9.89179 6.90007 9.12512C6.80424 8.93345 6.7084 8.45429 6.7084 7.78345C6.7084 7.40012 6.7084 6.82512 6.9959 6.25012C6.9959 6.25012 8.33757 6.25012 9.67924 7.49595C10.1584 7.30429 10.8292 7.20845 11.5001 7.20845C12.1709 7.20845 12.8417 7.30429 13.4167 7.49595C14.6626 6.25012 16.1001 6.25012 16.1001 6.25012C16.2917 6.82512 16.2917 7.40012 16.2917 7.78345C16.2917 8.55012 16.1959 8.93345 16.1001 9.12512C16.7709 9.89179 17.2501 10.8501 17.2501 12.0001C17.2501 14.1085 15.6209 15.3543 13.4167 15.8335C13.9917 16.3126 14.3751 17.1751 14.3751 18.0376V20.5293C14.3751 20.8168 14.6626 21.1043 15.0459 21.0085C18.5917 19.571 21.0834 16.121 21.0834 12.096C21.0834 6.34595 16.1959 1.84179 10.4459 2.51262Z" fill="#0F0A0A"/>
</svg>
